<?xml version="1.0" encoding="utf-8"?>
<!-- Generator: Adobe Illustrator 16.0.0, SVG Export Plug-In . SVG Version: 6.00 Build 0)  -->
<!DOCTYPE svg PUBLIC "-//W3C//DTD SVG 1.1//EN" "http://www.w3.org/Graphics/SVG/1.1/DTD/svg11.dtd">
<svg version="1.1" id="Layer_1" xmlns="http://www.w3.org/2000/svg" xmlns:xlink="http://www.w3.org/1999/xlink" x="0px" y="0px"
	 width="160px" height="110.17px" viewBox="226 340.915 160 110.17" enable-background="new 226 340.915 160 110.17"
	 xml:space="preserve">
<g id="zOJiGY_1_">
	<g>
		<path fill="#FFFFFF" d="M380,402.457c0,1.83,0,3.662,0,5.492c-1.195,5.412-4.857,8.507-9.658,10.791
			c-5.024,2.391-10.252,4.092-15.68,5.051c-4.841,0.854-9.768,1.227-14.658,1.793c-1.552,0.178-3.111,0.291-4.803,0.447
			c0,0.502,0,1.021,0,1.539c0,5.297,0,10.594,0,15.891c0,3.516-0.007,3.396-3.572,3.562c-2.1,0.096-3.415-0.711-4.461-2.411
			c-3.472-5.647-6.348-11.571-8.485-17.854c-0.218-0.642-0.188-1.488-1.359-1.491c-3.159-0.006-6.319-0.151-9.479-0.263
			c-2.198-0.077-4.396-0.144-6.589-0.292c-3.75-0.255-7.511-0.44-11.239-0.893c-4.307-0.521-8.583-1.293-12.871-1.973
			c-0.963-0.152-1.426,0.213-1.497,1.182c-0.065,0.896-0.15,1.797-0.299,2.683c-0.949,5.677-1.918,11.351-2.882,17.022
			c-0.113,0.666-0.36,1.1-1.193,1.082c-2.407-0.053-4.816,0.01-7.222-0.051c-0.364-0.01-0.881-0.345-1.051-0.673
			c-3.298-6.389-5.773-13.116-7.532-20.059c-1.455-5.745-2.536-11.597-3.506-17.448c-0.72-4.342-1.246-8.747-1.401-13.141
			c-0.171-4.851-0.514-9.758,0.772-14.558c0.09-0.334-0.04-0.914-0.285-1.124c-3.696-3.174-6.621-6.912-8.708-11.333
			c-0.299-0.631-1.178-1.157-1.899-1.389c-3.576-1.152-6.876-2.604-8.442-6.388c0-1.445,0-2.891,0-4.336
			c0.419-0.202,0.838-0.403,1.333-0.64c1.415,2.132,2.838,4.219,5.25,4.783c0.161-2.053-0.002-4.197,0.542-6.144
			c1.88-6.714,10.512-8.261,15.324-3.882c4.048,3.683,2.401,10.811-1.015,12.945c-1.593,0.996-3.187,1.991-4.781,2.987
			c1.542,2.106,3.479,4.132,6.007,5.448c2.116-3.76,4.726-6.996,7.908-9.854c4.941-4.439,10.578-7.641,16.833-9.651
			c4.24-1.363,8.618-2.383,13.003-3.182c3.721-0.678,7.535-1.037,11.318-1.136c3.663-0.096,7.359,0.141,11.003,0.565
			c3.406,0.397,6.807,1.064,10.131,1.913c5.861,1.495,11.493,3.659,16.731,6.728c3.819,2.238,7.495,4.71,10.128,8.357
			c0.552,0.764,1.788,1.559,0.959,2.921c-0.808,1.33-1.67,2.647-2.295,4.064c-1.833,4.152-2.967,8.417-1.439,13.122
			c0.158-0.805,0.289-1.448,0.412-2.091c0.58-3.037,1.832-5.715,3.982-7.992c2.801-2.965,6.384-4.266,10.227-5.107
			c4.068-0.891,7.728-2.587,10.49-5.797c1.115-1.294,1.988-2.797,2.969-4.203c2.146,2.961,3.567,9.938,2.121,13.873
			c-2.836,7.705-9.055,10.782-16.146,12.035c1.109,1.526,2.531,3.061,3.447,4.854c1.082,2.119,1.828,4.43,2.535,6.715
			c0.844,2.722,4.244,5.457,7.852,3.771c0.886-0.414,1.596-0.008,1.985,0.793C379.277,400.46,379.611,401.472,380,402.457z
			 M361.994,397.418c0.016-1.376-2.1-3.517-3.498-3.542c-1.615-0.028-3.67,1.987-3.637,3.567c0.031,1.612,2.056,3.592,3.641,3.562
			C360.015,400.977,361.979,398.961,361.994,397.418z M245.044,357.62c1.179-0.105,2.125-0.138,3.054-0.282
			c1.839-0.287,3.064-1.77,2.975-3.517c-0.088-1.733-1.267-3.026-2.825-3.099c-1.743-0.082-3.665,1.288-3.749,2.968
			C244.437,354.97,244.84,356.273,245.044,357.62z"/>
		<path fill="#FFFFFF" d="M298.078,443.797c-2.177,0-4.298,0.097-6.401-0.055c-0.702-0.05-1.53-0.589-2.006-1.152
			c-2.9-3.431-5.692-6.951-7.592-11.068c-0.384-0.832-0.632-1.728-0.942-2.596c2.939,0.572,5.769,1.178,8.621,1.658
			c1.586,0.27,3.205,0.399,4.813,0.457c0.838,0.029,1.179,0.344,1.32,1.109C296.599,435.988,297.33,439.822,298.078,443.797z"/>
		<path fill="#FFFFFF" d="M351.117,429.555c0.618,4.596,1.258,9.356,1.913,14.238c-1.807,0-3.654,0.182-5.436-0.086
			c-0.743-0.111-1.528-1.066-1.979-1.824c-1.985-3.357-3.856-6.781-5.761-10.188c-0.061-0.107-0.008-0.278-0.008-0.275
			C343.59,430.801,347.283,430.189,351.117,429.555z"/>
	</g>
</g>
</svg>
