<?xml version="1.0" encoding="utf-8"?>
<!-- Generator: Adobe Illustrator 16.0.0, SVG Export Plug-In . SVG Version: 6.00 Build 0)  -->
<!DOCTYPE svg PUBLIC "-//W3C//DTD SVG 1.1//EN" "http://www.w3.org/Graphics/SVG/1.1/DTD/svg11.dtd">
<svg version="1.1" id="Layer_1" xmlns="http://www.w3.org/2000/svg" xmlns:xlink="http://www.w3.org/1999/xlink" x="0px" y="0px"
	 width="150px" height="150px" viewBox="0 0 150 150" enable-background="new 0 0 150 150" xml:space="preserve">
<rect x="-0.5" y="-3" fill="#3A5D93" width="154" height="157"/>
<path fill="#FFFFFF" d="M51.294,66.148l-5.372,13.313l2.258-13.313h-5.878l-3.737,28.3h6.345l12.418-28.3H51.294z M59.858,82.498
	h5.1l1.479-5.021h-5.099l1.829-6.229h5.217l1.518-5.1H58.768l-8.33,28.3h10.938l1.946-5.372h-5.411L59.858,82.498z M26.623,100.244
	c-3.057,0-5.935-0.774-8.453-2.14l-1.501,3.102c2.972,1.59,6.358,2.489,9.954,2.489c6.794,0,12.845-3.217,16.75-8.224h-4.639
	C35.545,98.435,31.293,100.244,26.623,100.244z M30.392,89.517v2.925l7.194-5.524l-6.962-6.545v2.833h-7.426l7.426-17.638v12.996
	l6.013,5.688l0.149-29.963h-6.581L6.164,103.935l7.984,0.156l6.451-14.574H30.392z M11.065,91.113
	c-1.499-2.648-2.355-5.716-2.355-8.986c0-9.108,6.646-16.645,15.301-17.923l1.754-3.625C14.386,61.034,5.299,70.507,5.299,82.127
	c0,4.665,1.463,8.982,3.952,12.512L11.065,91.113z M36.625,94.448v-5.346l-6.24,5.346H36.625z M125.37,81.019
	c1.44,0,2.257-0.856,2.49-1.674l2.842-9.614c0.545-1.869-0.272-3.582-2.802-3.582h-10.705l-8.33,28.3h5.878l3.542-12.067h1.947
	c0.701,0,0.778,0.506,0.623,0.973l-3.27,11.095h5.878l3.036-10.316C127.121,82.108,126.265,81.175,125.37,81.019z M124.435,71.87
	l-1.557,5.255c-0.272,0.857-0.778,1.091-1.362,1.091h-2.024l2.219-7.513h1.83C124.435,70.703,124.669,71.131,124.435,71.87z
	 M80.177,66.148l-3.231,10.939l-0.194-10.939H71.73l-8.331,28.3h5.528l3.387-11.289l0.506,11.289h4.71l8.33-28.3H80.177z
	 M138.838,71.248h5.138l1.518-5.1h-9.07c-1.401,0-2.802,0.39-3.464,2.374l-3.231,10.979c-0.583,2.062,0,3.425,2.453,3.425h3.114
	c0.35,0,0.35,0.155,0.273,0.389l-1.364,4.788c-0.233,0.701-0.389,0.974-1.478,0.974h-4.905l-1.596,5.372h9.614
	c1.207,0,2.492-0.584,2.803-1.713l3.231-10.978c0.818-2.764-0.506-3.932-2.608-3.932h-3.153l1.674-5.761
	C137.981,71.442,138.409,71.248,138.838,71.248z M92.244,77.477l-1.479,5.021h1.207l-2.141,7.24h-1.986
	c-0.778,0-1.128-0.312-0.895-1.129l4.866-16.504c0.194-0.701,0.506-0.857,1.128-0.857h5.723l1.519-5.1h-9.382
	c-1.868,0-3.153,0.545-3.776,2.646l-5.995,20.398c-1.089,3.736,1.129,5.255,3.776,5.255h3.62l-0.623,2.218l6.54-3.308l4.672-15.882
	H92.244z M105.323,82.498h5.099l1.479-5.021h-5.099l1.83-6.229h5.216l1.519-5.1h-11.133l-8.331,28.3h10.939l1.945-5.372h-5.41
	L105.323,82.498z"/>
</svg>
