<?xml version="1.0" encoding="utf-8"?>
<!-- Generator: Adobe Illustrator 16.0.0, SVG Export Plug-In . SVG Version: 6.00 Build 0)  -->
<!DOCTYPE svg PUBLIC "-//W3C//DTD SVG 1.1//EN" "http://www.w3.org/Graphics/SVG/1.1/DTD/svg11.dtd">
<svg version="1.1" id="Layer_1" xmlns="http://www.w3.org/2000/svg" xmlns:xlink="http://www.w3.org/1999/xlink" x="0px" y="0px"
	 width="150px" height="150px" viewBox="0 0 150 150" enable-background="new 0 0 150 150" xml:space="preserve">
<g id="Hulk">
	<rect fill="#42A120" width="150" height="150"/>
	<path fill-rule="evenodd" clip-rule="evenodd" fill="#FFFFFF" d="M56.575,98.763h36.85l9.144,9.57H47.432L56.575,98.763z"/>
	<path fill-rule="evenodd" clip-rule="evenodd" fill="#FFFFFF" d="M88.897,65.117l25.143-12.537c0,0,2.665,12.561-10.155,12.561
		S88.897,65.117,88.897,65.117z"/>
	<path fill-rule="evenodd" clip-rule="evenodd" d="M120,57.168h-10.752l-24.489,9.57L111.041,47L120,57.168z"/>
	<path fill-rule="evenodd" clip-rule="evenodd" fill="#FFFFFF" d="M45.873,65.141c-12.819,0-10.155-12.561-10.155-12.561
		l25.143,12.537C60.861,65.117,58.692,65.141,45.873,65.141z"/>
	<path fill-rule="evenodd" clip-rule="evenodd" d="M38.718,47L65,66.738l-24.489-9.57H29.759L38.718,47z"/>
</g>
</svg>
