<?xml version="1.0" encoding="utf-8"?>
<!-- Generator: Adobe Illustrator 16.0.0, SVG Export Plug-In . SVG Version: 6.00 Build 0)  -->
<!DOCTYPE svg PUBLIC "-//W3C//DTD SVG 1.1//EN" "http://www.w3.org/Graphics/SVG/1.1/DTD/svg11.dtd">
<svg version="1.1" id="Layer_1" xmlns="http://www.w3.org/2000/svg" xmlns:xlink="http://www.w3.org/1999/xlink" x="0px" y="0px"
	 width="150px" height="150px" viewBox="0 0 150 150" enable-background="new 0 0 150 150" xml:space="preserve">
<rect fill="#EFBB14" width="150" height="150"/>
<g>
	<path fill="#BA2228" d="M99.463,63.483c0,0,0.833-18.977,0.291-22.188c-0.54-3.213-14.583-8.604-14.583-8.604L79.629,60h-4.958
		h-4.958l-5.542-27.308c0,0-14.042,5.323-14.583,8.536c-0.543,3.211,0.291,22.222,0.291,22.222l-4.375,8.191l0.291,9.642
		c0,0,5.001,2.674,9.626,11.392c4.624,8.717,5.833,11.606,5.833,11.606L63.295,101h11.376h11.376l2.041,3.283
		c0,0,1.209-3.07,5.833-11.787c4.625-8.718,9.625-11.294,9.625-11.294l0.292-9.589L99.463,63.483z M67.962,76.037l-8.458,0.876
		l-3.5-2.336l0.583-2.919l11.958,2.336L67.962,76.037z M89.838,76.913l-8.458-0.876l-0.583-2.043l11.958-2.336l0.583,2.919
		L89.838,76.913z"/>
	<polygon fill="#BA2228" points="88.379,107.975 85.463,104 74.671,104 63.879,104 60.963,107.975 58.337,103.391 56.296,109.712 
		61.546,116.675 64.171,114 74.671,114 85.171,114 87.796,116.623 93.046,109.76 91.005,103.287 	"/>
</g>
</svg>
