<?xml version="1.0" encoding="utf-8"?>
<!-- Generator: Adobe Illustrator 16.0.0, SVG Export Plug-In . SVG Version: 6.00 Build 0)  -->
<!DOCTYPE svg PUBLIC "-//W3C//DTD SVG 1.1//EN" "http://www.w3.org/Graphics/SVG/1.1/DTD/svg11.dtd">
<svg version="1.1" id="Layer_1" xmlns="http://www.w3.org/2000/svg" xmlns:xlink="http://www.w3.org/1999/xlink" x="0px" y="0px"
	 width="150px" height="150px" viewBox="0 0 150 150" enable-background="new 0 0 150 150" xml:space="preserve">
<g>
	<path fill-rule="evenodd" clip-rule="evenodd" fill="#FFFFFF" d="M75.941,31.004c0.365,0.773,0.622,1.314,0.876,1.855
		c2.899,6.238,5.829,12.455,8.667,18.722c0.458,1.008,1.083,1.259,2.055,1.362c7.173,0.798,14.339,1.641,21.508,2.465
		c0.184,0.021,0.369,0.057,0.764,0.121c-0.375,0.387-0.635,0.672-0.92,0.941c-5.224,4.871-10.438,9.757-15.687,14.604
		c-0.635,0.584-0.812,1.104-0.635,1.961c1.487,7.14,2.917,14.289,4.362,21.437c0.042,0.215,0.056,0.439,0.112,0.869
		c-0.477-0.236-0.828-0.395-1.164-0.583c-6.243-3.467-12.494-6.921-18.718-10.413c-0.744-0.418-1.286-0.451-2.051-0.017
		c-6.197,3.551-12.421,7.053-18.639,10.562c-0.354,0.2-0.719,0.375-1.25,0.654c0.602-3.099,1.167-6.019,1.733-8.935
		c0.88-4.531,1.738-9.053,2.663-13.567c0.159-0.779-0.014-1.237-0.581-1.76c-5.28-4.812-10.532-9.654-15.791-14.49
		c-0.298-0.278-0.595-0.555-1.024-0.958c0.399-0.09,0.628-0.166,0.864-0.194c7.239-0.897,14.474-1.806,21.717-2.653
		c0.883-0.1,1.298-0.444,1.65-1.224c2.903-6.448,5.849-12.866,8.787-19.293C75.424,32.061,75.623,31.664,75.941,31.004z"/>
</g>
<line fill="#FFFFFF" stroke="#FFFFFF" stroke-width="4" stroke-miterlimit="10" x1="-6.767" y1="69" x2="156.233" y2="69"/>
</svg>
