<?xml version="1.0" encoding="utf-8"?>
<!-- Generator: Adobe Illustrator 16.0.0, SVG Export Plug-In . SVG Version: 6.00 Build 0)  -->
<!DOCTYPE svg PUBLIC "-//W3C//DTD SVG 1.1//EN" "http://www.w3.org/Graphics/SVG/1.1/DTD/svg11.dtd">
<svg version="1.1" id="Layer_1" xmlns="http://www.w3.org/2000/svg" xmlns:xlink="http://www.w3.org/1999/xlink" x="0px" y="0px"
	 width="150px" height="150px" viewBox="0 0 150 150" enable-background="new 0 0 150 150" xml:space="preserve">
<g id="Thor">
	<rect fill="#486A9C" width="150" height="150"/>
	<g>
		<path fill="none" d="M90.644,106.213l-3.274,1.655c-0.602,1.861-1.824,5.854-2.662,10.04c-1.149,5.74-1.795,6.747-0.062,7.576
			c1.734,0.829,5.025-1.376,6.615-8.237C92.436,112.174,91.311,108.03,90.644,106.213z"/>
		<path fill="#FFFFFF" d="M91.908,105.573l1.146-0.579L70.873,54.303l11.801-5.362l1.732-4.677l-7.194-17.611l-5.852-2.347
			l-11.425,4.999l-0.683-1.56l-7.474,2.777l0.859,1.975l-10.735,4.698l-1.731,4.678l8.426,18.728l4.729,1.676l10.25-4.657
			l22.223,51.043l0.347-0.175c-1.294,2.905-4.032,9.444-4.637,13.985c-0.798,5.993,5.589,7.166,8.332,2.684
			C92.424,120.935,96.18,111.358,91.908,105.573z M84.645,125.484c-1.732-0.829-1.087-1.836,0.062-7.576
			c0.838-4.186,2.061-8.179,2.662-10.04l3.274-1.655c0.667,1.817,1.792,5.961,0.616,11.034
			C89.67,124.108,86.379,126.313,84.645,125.484z"/>
	</g>
</g>
</svg>
